<?xml version="1.0" encoding="utf-8"?>
<!-- Generator: Adobe Illustrator 16.0.0, SVG Export Plug-In . SVG Version: 6.00 Build 0)  -->
<!DOCTYPE svg PUBLIC "-//W3C//DTD SVG 1.1//EN" "http://www.w3.org/Graphics/SVG/1.1/DTD/svg11.dtd">
<svg version="1.1" id="Layer_1" xmlns="http://www.w3.org/2000/svg" xmlns:xlink="http://www.w3.org/1999/xlink" x="0px" y="0px"
	 width="100px" height="100px" viewBox="0 0 100 100" enable-background="new 0 0 100 100" xml:space="preserve">
<g>
	<g id="_x31_2">
		<g>
			<g>
				<g>
					<path fill="#F5F5F5" d="M45.739,82.974c-0.371-0.615-1.783-1.133-3.156-1.68c-1.392-0.555-3.349-1.381-3.435-1.58
						c-0.07-0.162-0.036-0.373-0.157-0.502c-0.073-0.076-0.184-0.104-0.287-0.121c-0.98-0.182-2.017-0.041-2.912,0.396
						c-0.415,0.201-0.9,1.043-0.9,1.043c0.027,0.328,0.005,1.127,0.014,1.729c0.006,0.426,0.395,0.592,0.797,0.73
						c1.571,0.545,5.541,2.158,6.26,2.256c1.026,0.141,3.32,0.533,3.869-0.658C46.063,84.085,46.025,83.446,45.739,82.974z"/>
					<g>
						<path fill="#E58D2E" d="M45.831,84.04c-0.852,0.994-2.843,0.797-3.869,0.656c-0.893-0.123-7.083-2.605-7.083-2.605
							s-0.094,0.801,0.179,0.9c0,0,5.728,2.311,6.601,2.533c1.408,0.361,3.698,0.357,4.246-0.832
							c0.145-0.311,0.174-0.695,0.062-1.07C45.966,83.868,45.831,84.04,45.831,84.04z"/>
					</g>
				</g>
				<path fill="#E58D2E" d="M22.632,95.876c0.485,0.615,1.426,0.902,2.308,0.943c1.088,0.053,2.036-0.732,2.183-1.813
					c0.184-1.355,0.199-3.354,0.137-5.564c-0.006-0.188,0.014-1.703-0.067-1.746c-1.135-0.594-3.81-1.59-4.518-0.605
					c0,0-0.159,1.182-0.286,2.164C22.05,91.853,21.625,94.601,22.632,95.876z"/>
				<g>
					<path fill="#F5F5F5" d="M22.668,94.942c0.485,0.615,1.427,0.902,2.308,0.943c1.089,0.053,2.035-0.732,2.182-1.813
						c0.185-1.355,0.201-3.354,0.138-5.564c-0.005-0.188,0.014-1.705-0.067-1.746c-1.135-0.594-3.811-1.59-4.518-0.605
						c0,0-0.159,1.18-0.287,2.164C22.086,90.917,21.661,93.667,22.668,94.942z"/>
				</g>
				<path fill="#231B23" d="M25.284,53.372c-1.612,4.283-1.044,17.004-1.044,17.004c-1.244,4.639-1.603,11.934-1.876,16.182
					c-0.095,1.492,4.878,1.889,5.174,0.127c0.096-0.572,3.337-14.49,3.529-15.064c0.456-1.359,0.789-2.756,1-4.176l2.157-14.543
					C31.291,50.542,27.439,47.151,25.284,53.372z"/>
				<path fill="#231B23" d="M33.275,66.632c0,0-0.259,2.543-0.18,3.406c0.368,4.053,0.895,4.639,1.573,10.695
					c0.16,1.439,5.51,1.051,5.373-0.545l-0.093-14.074c0,0,0.488-7.652,0.488-12.305c0-1.236-0.562-4.922-1.779-4.711
					c-6.939,1.195-6.48,7.072-6.41,7.725C32.497,59.116,33.021,63.063,33.275,66.632z"/>
			</g>
			<path fill="#FCBE9F" d="M51.208,46.843c0.36-0.117,0.721-0.242,1.047-0.436c0.188-0.109,0.369-0.248,0.458-0.445
				c0.09-0.197,0.055-0.465-0.126-0.584c-0.141-0.096-0.328-0.078-0.492-0.033c-0.298,0.08-3.154,1.498-3.253,1.207
				c-0.061-0.184-6.069-7.846-6.069-7.846c-0.081-2.74,0.149-6.764-0.174-8.047c0,0-4.058,8.904-3.517,9.529
				c0.236,2.029,5.147,5.68,6.473,6.947c0.182,0.172,0.315,0.391,0.38,0.633c0.282,1.041,1.211,2.961,2.026,3.059
				c0.388,0.047,0.774-0.072,1.146-0.189c0.434-0.139,0.865-0.275,1.299-0.414c0.128-0.041,0.262-0.084,0.357-0.18
				c0.097-0.096,0.141-0.232,0.176-0.365c0.165-0.627,0.196-1.287,0.095-1.928C50.998,47.517,50.995,46.913,51.208,46.843z"/>
			<path fill="#4035D8" d="M24.873,35.778c-0.083,1.061,0.072,2.207,0.874,4.473c0.449,1.27,0.902,3.406,0.983,4.75
				c0.083,1.375,0.05,2.195-0.311,4.039c-0.122,0.623-0.361,1.217-0.609,1.803c-1.326,3.127,5.051,4.523,8.34,4.059
				c3.084-0.436,6.445-1.311,6.351-4.434c0,0-0.775-4.799-0.395-8.104c0.276-2.395,1.501-10.602,1.501-10.602
				c0.082-1.967-0.896-5.004-2.86-5.113c-1.483,0-9.18,3.941-12.302,6.309C25.59,33.604,24.958,34.71,24.873,35.778z"/>
			<path fill="#4035D8" d="M39.018,26.476c-3.669,0,1.577,8.818,1.577,8.818s2.768-0.811,2.717-1.926
				C43.167,30.194,42.687,26.476,39.018,26.476z"/>
			<g>
				<path fill="#FCBE9F" d="M37.837,29.956c-0.595-1.566-1.256-1.367-2.02-2.207c-1.428,0.6-3.245,1.43-4.951,2.416
					c-2.888,1.666,1.981,5.129,5.386,3.473C37.531,33.015,38.304,31.187,37.837,29.956z"/>
				<path fill="#F3A984" d="M32.441,25.899l-1.42,4.416c-0.108,0.336-0.069,0.703,0.127,0.996c0.168,0.252,0.437,0.574,0.865,0.938
					c1.564,1.334,2.852,1.221,3.615,0.941c0.499-0.186,0.843-0.645,0.893-1.176l0.05-0.52L32.441,25.899z"/>
			</g>
			<g>
				<g enable-background="new    ">
					<path fill="#D2CECA" d="M53.649,46.724l-0.112-0.295l-7.542,2.732l0.111,0.293c0.043,0.111,0.184,0.182,0.384,0.174
						l5.541-0.242c0.298-0.012,0.612-0.195,0.704-0.406l0.901-2.07C53.666,46.839,53.669,46.776,53.649,46.724z"/>
					<path fill="#322E2E" d="M53.152,46.257l-5.539,0.242c-0.298,0.012-0.613,0.193-0.705,0.404l-0.901,2.072
						c-0.092,0.211,0.075,0.371,0.373,0.359l5.539-0.242c0.298-0.014,0.613-0.193,0.705-0.404l0.9-2.072
						C53.617,46.405,53.45,46.243,53.152,46.257z"/>
					<path fill="#648BE8" d="M46.2,49.229c-0.061-0.02-0.104-0.053-0.122-0.092c-0.017-0.035-0.014-0.078,0.008-0.129l0.901-2.07
						c0.079-0.182,0.367-0.342,0.629-0.354l5.541-0.242c0.065-0.002,0.124,0.004,0.174,0.02c0.061,0.02,0.104,0.051,0.123,0.092
						c0.016,0.035,0.014,0.078-0.008,0.127l-0.901,2.072c-0.079,0.18-0.367,0.342-0.63,0.354l-5.54,0.242
						C46.31,49.251,46.25,49.245,46.2,49.229L46.2,49.229z"/>
				</g>
			</g>
			<path fill="#FCBE9F" d="M49.408,48.521c-0.131-0.037-0.272-0.055-0.432-0.041c-0.627,0.051-1.322,0.359-1.861,0.672
				c-0.129,0.076-0.253,0.162-0.346,0.279c-0.195,0.246-0.146,0.414,0.022,0.641c0.274,0.371,0.699,0.699,1.169,0.756
				c0.557,0.068,1.896-0.43,2.445-0.604c0.212-0.066,0.398-0.197,0.462-0.42c0.079-0.275-0.141-0.326-0.332-0.479
				C50.159,49.024,49.853,48.649,49.408,48.521z"/>
			<path fill="#FCBE9F" d="M45.018,49.778c-1.073-0.34-3.254-0.313-4.857,1.205c0,0-0.625,0.012-1.745-0.297
				c-1.669-0.453-3.317-0.982-4.965-1.506c-0.682-0.219-1.364-0.436-2.036-0.682c-0.218-0.08-0.771-0.191-0.906-0.41
				c0.263-2.836-0.24-8.299-1.299-9.012c-0.396-0.266-1.497-0.117-2.005,0.076l-3.273,1.76c0.21,0.367,1.195,3.656,2.229,6.674
				c0.937,2.732,1.262,3.531,1.802,3.951c0.161,0.125,0.35,0.209,0.538,0.287c1.747,0.725,3.853,0.799,5.71,1
				c1.06,0.113,2.12,0.217,3.177,0.346s2.645,0.201,3.237,0.248c1.464,0.109,4.496-0.516,5.688-1.551
				C46.959,51.304,45.857,50.044,45.018,49.778z"/>
			<path fill="#4035D8" d="M24.144,42.487c0.34,1.727,7.807,0.143,7.315-1.814c-0.166-0.656-1.768-7.387-3.638-8.537
				c0,0-0.041-0.004-0.102,0.027c-1.954,1-3.486,2.648-3.789,4.783C23.73,38.353,23.636,39.901,24.144,42.487z"/>
			<g>
				<path fill="#FCBE9F" d="M33.708,19.569c-1.911,0.744-3.319,2.102-2.871,5.762c0.346,2.816,2.715,5.662,4.824,7.189
					c0.521,0.379,2.124,0.785,2.64-0.43c0.438-1.031,1.471-4.045,1.493-6.666c0.02-2.109-0.059-3.918-1.669-5.215
					C37.021,19.321,35.706,18.792,33.708,19.569z"/>
				<path fill="#724A2F" d="M34.212,26.392c0.543-2.16,3.864-0.637,5.563-2.334c0.33-1.115-0.152-2.852-1.65-4.096
					c-1.091-0.904-2.579-1.477-4.579-0.699c-1.909,0.744-3.413,2.25-2.871,6.068c0.039,0.281,0.47,2.486,0.984,2.486
					c0.325-0.074,0.082-1.246,0.135-1.576c0.087-0.543,0.681-0.834,1.078-0.406c0.33,0.355,0.162,1.355,0.93,1.164
					C34.14,26.913,34.13,26.72,34.212,26.392z"/>
			</g>
		</g>
		<path fill="#719DFF" d="M75.493,14.122L50.915,25.46c-1.384,0.641-2.507,2.055-2.507,3.16v11.904c0,1.104,1.119,1.484,2.502,0.848
			v6.529l4.162-8.449l20.421-9.42c1.383-0.639,2.505-2.055,2.505-3.16V14.97C77.998,13.862,76.876,13.483,75.493,14.122z"/>
		<g>
			<g>
				<g>
					<polygon fill="#FFFCF3" points="76.166,26.446 74.592,27.171 74.592,27.45 76.166,26.724 					"/>
					<polygon fill="#FFFCF3" points="73.992,28.554 73.992,28.833 76.161,27.831 76.161,27.554 					"/>
					<polygon fill="#FFFCF3" points="68.418,27.409 69.285,27.009 70.603,26.401 70.603,26.122 69.285,26.731 68.418,27.13 					"/>
					<polygon fill="#FFFCF3" points="76.172,23.554 74.449,24.349 74.449,24.626 76.172,23.831 					"/>
					<polygon fill="#FFFCF3" points="69.822,29.651 72.141,28.581 72.141,28.304 69.822,29.372 68.274,30.087 68.274,30.366 					
						"/>
					<polygon fill="#FFFCF3" points="70.453,27.296 70.453,27.575 72.141,26.798 72.141,26.519 					"/>
					<polygon fill="#FFFCF3" points="76.159,22.454 74.606,23.169 74.606,23.448 76.159,22.731 					"/>
					<polygon fill="#FFFCF3" points="73.167,25.218 73.831,24.913 73.831,24.634 73.167,24.94 					"/>
					<polygon fill="#FFFCF3" points="68.484,24.89 66.357,25.87 65.669,26.188 65.669,26.466 66.357,26.149 68.484,25.169 					"/>
					<polygon fill="#FFFCF3" points="67.8,27.417 65.641,28.413 65.641,28.69 67.8,27.694 					"/>
					<polygon fill="#FFFCF3" points="76.143,21.634 76.143,21.354 75.197,21.792 75.197,22.069 					"/>
					<polygon fill="#FFFCF3" points="74.58,22.356 74.58,22.077 73.766,22.452 73.766,22.731 					"/>
					<polygon fill="#FFFCF3" points="70.44,25.37 72.129,24.593 72.129,24.313 70.44,25.091 					"/>
					<polygon fill="#FFFCF3" points="68.758,28.358 69.836,27.86 69.836,27.581 68.274,28.304 65.646,29.515 65.646,29.794 
						68.758,28.358 					"/>
					<polygon fill="#FFFCF3" points="69.822,25.655 69.822,25.378 68.262,26.099 65.654,27.3 65.654,27.579 68.916,26.073 					"/>
					<polygon fill="#FFFCF3" points="74.592,25.388 74.592,25.665 76.166,24.94 76.166,24.661 					"/>
					<polygon fill="#FFFCF3" points="67.563,31.521 65.65,32.403 65.65,32.681 67.563,31.798 69.689,30.817 69.689,30.54 					"/>
					<polygon fill="#FFFCF3" points="67.656,30.372 65.646,31.298 65.646,31.577 67.656,30.649 					"/>
					<polygon fill="#FFFCF3" points="70.308,30.255 70.308,30.532 71.431,30.015 71.431,29.737 					"/>
					<polygon fill="#FFFCF3" points="69.103,24.882 70.603,24.19 73.228,22.979 73.228,22.702 70.382,24.013 69.103,24.604 					"/>
				</g>
				<g>
					<path fill="#FFFFFF" d="M62.883,25.181l0.202-0.455c0.154,0.143,0.353,0.229,0.625,0.102c0.299-0.139,0.502-0.459,0.502-0.828
						c0-0.396-0.186-0.568-0.781-0.289v-0.412c0.52-0.242,0.69-0.592,0.69-0.951c0-0.314-0.153-0.441-0.404-0.33
						c-0.205,0.102-0.376,0.318-0.53,0.588l-0.215-0.25c0.21-0.35,0.453-0.645,0.759-0.787c0.475-0.221,0.812-0.047,0.812,0.545
						c0,0.414-0.177,0.781-0.458,1.055v0.023c0.304-0.041,0.546,0.158,0.546,0.639c0,0.646-0.397,1.211-0.884,1.438
						C63.33,25.46,63.059,25.364,62.883,25.181z"/>
					<path fill="#FFFFFF" d="M64.93,24.237l0.199-0.455c0.15,0.133,0.34,0.223,0.617,0.094c0.298-0.141,0.522-0.533,0.522-1.008
						c0-0.477-0.196-0.654-0.502-0.512c-0.168,0.078-0.269,0.193-0.423,0.402l-0.203-0.088l0.081-1.73l1.342-0.627v0.471
						l-0.982,0.459L65.52,22.19c0.11-0.131,0.218-0.23,0.364-0.297c0.441-0.207,0.804-0.021,0.804,0.76
						c0,0.793-0.429,1.438-0.892,1.654C65.382,24.503,65.116,24.397,64.93,24.237z"/>
					<path fill="#FFFFFF" d="M67.051,21.858c0-1.238,0.337-1.998,0.857-2.242c0.518-0.242,0.855,0.209,0.855,1.441
						c0,1.242-0.338,2.021-0.855,2.264C67.388,23.565,67.051,23.101,67.051,21.858z M68.368,21.243c0-1.025-0.19-1.311-0.46-1.184
						c-0.269,0.125-0.461,0.588-0.461,1.613c0,1.033,0.192,1.334,0.461,1.207C68.178,22.755,68.368,22.278,68.368,21.243z"/>
					<path fill="#FFFFFF" d="M69.125,23.347c0.245-0.252,0.389-0.561,0.392-0.85c-0.016,0.012-0.027,0.018-0.04,0.023
						c-0.147,0.07-0.277,0.004-0.277-0.229c0-0.221,0.13-0.42,0.287-0.494c0.203-0.094,0.32,0.078,0.32,0.453
						c0,0.51-0.218,1.004-0.589,1.367L69.125,23.347z"/>
					<path fill="#FFFFFF" d="M70.176,20.399c0-1.238,0.332-1.998,0.854-2.242c0.518-0.24,0.856,0.209,0.856,1.441
						c0,1.244-0.339,2.021-0.856,2.264C70.508,22.106,70.176,21.642,70.176,20.399z M71.492,19.784c0-1.025-0.191-1.311-0.462-1.184
						c-0.27,0.125-0.459,0.588-0.459,1.613c0,1.033,0.189,1.334,0.459,1.207C71.301,21.296,71.492,20.817,71.492,19.784z"/>
					<path fill="#FFFFFF" d="M72.225,19.44c0-1.238,0.335-1.996,0.855-2.24c0.52-0.242,0.857,0.207,0.857,1.441
						c0,1.242-0.338,2.021-0.857,2.264C72.56,21.147,72.225,20.683,72.225,19.44z M73.543,18.827c0-1.025-0.191-1.311-0.463-1.186
						c-0.27,0.127-0.459,0.59-0.459,1.615c0,1.033,0.189,1.332,0.459,1.207C73.352,20.337,73.543,19.86,73.543,18.827z"/>
					<path fill="#FFFFFF" d="M74.277,18.483c0-1.238,0.333-1.998,0.854-2.242c0.519-0.242,0.858,0.209,0.858,1.441
						c0,1.242-0.34,2.021-0.858,2.264C74.61,20.19,74.277,19.726,74.277,18.483z M75.592,17.868c0-1.025-0.188-1.311-0.461-1.184
						c-0.269,0.125-0.458,0.588-0.458,1.613c0,1.033,0.189,1.334,0.458,1.207C75.403,19.38,75.592,18.901,75.592,17.868z"/>
				</g>
			</g>
		</g>
		<path fill="#FFFFFF" d="M56.614,25.2c-2.851,1.131-5.173,4.586-5.173,7.707s2.322,4.74,5.173,3.609
			c2.854-1.127,5.176-4.586,5.176-7.705C61.79,25.69,59.468,24.071,56.614,25.2z M56.614,25.714
			c2.596-1.025,4.708,0.445,4.708,3.283c0,1.082-0.311,2.211-0.835,3.248c-0.03-0.045-0.058-0.084-0.089-0.119
			c-0.313-0.334-2.276-0.238-2.364-0.279c-0.085-0.041-0.36-0.34-0.36-0.34l-0.02,0.008v-0.445c0.117-0.209,0.21-0.41,0.268-0.566
			c0.039-0.104,0.072-0.305,0.103-0.559c0.321-0.289,0.363-0.871,0.374-1.193c0.009-0.168-0.069-0.143-0.151-0.07
			c0.004-0.035,0.005-0.072,0.01-0.107c0.086-0.361,0.164-0.725,0.229-1.082c0.053-0.277,0.093-0.58-0.035-0.748
			c0.045-0.012,0.089-0.021,0.136-0.033c-0.183-0.387-0.602-0.531-1.048-0.473c-0.442,0.059-0.91,0.299-1.357,0.584
			c-0.226,0.145-0.463,0.32-0.619,0.566c-0.199,0.084-0.397,0.197-0.591,0.342c0.071,0.004,0.142,0.01,0.213,0.014
			c-0.312,0.488-0.47,1.07-0.413,1.545c0.023,0.211,0.093,0.395,0.19,0.547c0.014,0.039,0.028,0.078,0.043,0.115
			c-0.067,0.004-0.127,0.051-0.118,0.191c0.013,0.313,0.051,0.863,0.376,0.896c0.029,0.23,0.063,0.406,0.102,0.479
			c0.056,0.107,0.146,0.232,0.259,0.348v0.455l-0.017,0.006c0,0-0.276,0.516-0.363,0.627c-0.088,0.111-2.051,1.568-2.363,2.15
			c-0.038,0.072-0.073,0.152-0.11,0.238c-0.539-0.623-0.859-1.518-0.859-2.619C51.91,29.886,54.021,26.741,56.614,25.714z"/>
		<g>
			<path fill="#A8C8EA" d="M66.115,3.382l-16.068,7.412c-0.905,0.418-1.639,1.342-1.639,2.064v7.783
				c0,0.723,0.732,0.969,1.637,0.555v4.27l2.72-5.525l13.351-6.158c0.902-0.418,1.639-1.344,1.639-2.066V3.935
				C67.754,3.212,67.018,2.964,66.115,3.382z"/>
			<g>
				<g>
					<g>
						<polygon fill="#FFFCF3" points="66.555,11.438 65.527,11.911 65.527,12.095 66.555,11.62 						"/>
						<polygon fill="#FFFCF3" points="65.134,12.815 65.134,12.999 66.553,12.343 66.553,12.161 						"/>
						<polygon fill="#FFFCF3" points="61.49,12.067 62.057,11.806 62.918,11.409 62.918,11.228 62.057,11.624 61.49,11.886 						
							"/>
						<polygon fill="#FFFCF3" points="66.559,9.546 65.434,10.065 65.434,10.249 66.559,9.728 						"/>
						<polygon fill="#FFFCF3" points="62.408,13.534 63.924,12.833 63.924,12.651 62.408,13.351 61.396,13.817 61.396,14.001 						
							"/>
						<polygon fill="#FFFCF3" points="62.82,11.993 62.82,12.177 63.924,11.667 63.924,11.485 						"/>
						<polygon fill="#FFFCF3" points="66.551,8.827 65.535,9.296 65.535,9.479 66.551,9.011 						"/>
						<polygon fill="#FFFCF3" points="64.596,10.634 65.028,10.435 65.028,10.253 64.596,10.452 						"/>
						<polygon fill="#FFFCF3" points="61.532,10.421 60.143,11.062 59.691,11.269 59.691,11.452 60.143,11.243 61.532,10.603 						
							"/>
						<polygon fill="#FFFCF3" points="61.086,12.071 59.673,12.724 59.673,12.905 61.086,12.253 						"/>
						<polygon fill="#FFFCF3" points="66.54,8.292 66.54,8.11 65.922,8.396 65.922,8.577 						"/>
						<polygon fill="#FFFCF3" points="65.518,8.763 65.518,8.581 64.985,8.827 64.985,9.009 						"/>
						<polygon fill="#FFFCF3" points="62.813,10.735 63.915,10.226 63.915,10.044 62.813,10.552 						"/>
						<polygon fill="#FFFCF3" points="61.712,12.687 62.417,12.362 62.417,12.181 61.396,12.651 59.678,13.444 59.678,13.626 
							61.712,12.687 						"/>
						<polygon fill="#FFFCF3" points="62.408,10.921 62.408,10.739 61.387,11.21 59.683,11.997 59.683,12.179 61.814,11.194 						
							"/>
						<polygon fill="#FFFCF3" points="65.527,10.745 65.527,10.929 66.555,10.452 66.555,10.271 						"/>
						<polygon fill="#FFFCF3" points="60.931,14.755 59.681,15.333 59.681,15.515 60.931,14.937 62.321,14.296 62.321,14.114 						
							"/>
						<polygon fill="#FFFCF3" points="60.992,14.005 59.678,14.61 59.678,14.792 60.992,14.187 						"/>
						<polygon fill="#FFFCF3" points="62.726,13.927 62.726,14.11 63.459,13.771 63.459,13.589 						"/>
						<polygon fill="#FFFCF3" points="61.938,10.415 62.918,9.964 64.635,9.171 64.635,8.989 62.774,9.847 61.938,10.233 						"/>
					</g>
					<g>
						<path fill="#FFFFFF" d="M57.907,10.659c0.511-0.85,0.773-1.426,0.773-1.811c0-0.254-0.102-0.381-0.292-0.291
							c-0.138,0.064-0.25,0.234-0.342,0.42l-0.151-0.133c0.146-0.285,0.299-0.488,0.526-0.594c0.316-0.148,0.521,0.035,0.521,0.457
							c0,0.451-0.265,1.041-0.633,1.686c0.089-0.055,0.198-0.113,0.282-0.154l0.434-0.201v0.311l-1.118,0.521V10.659z"/>
						<path fill="#FFFFFF" d="M59.253,9.661c0-0.309,0.151-0.584,0.311-0.773V8.872c-0.129-0.063-0.231-0.189-0.231-0.438
							c0-0.365,0.208-0.701,0.494-0.834c0.299-0.141,0.487,0.025,0.487,0.391c0,0.238-0.12,0.498-0.229,0.656v0.016
							c0.157,0.047,0.292,0.166,0.292,0.482c0,0.346-0.225,0.719-0.56,0.875C59.495,10.171,59.253,10.022,59.253,9.661z
							 M60.122,9.255c0-0.285-0.192-0.303-0.427-0.324c-0.119,0.166-0.2,0.381-0.2,0.584c0,0.23,0.143,0.326,0.327,0.24
							C60,9.673,60.122,9.476,60.122,9.255z M60.085,8.12c0-0.217-0.095-0.332-0.265-0.254c-0.14,0.066-0.246,0.246-0.246,0.455
							c0,0.254,0.162,0.295,0.355,0.307C60.033,8.448,60.085,8.274,60.085,8.12z"/>
						<path fill="#FFFFFF" d="M60.596,8.438c0-0.811,0.22-1.307,0.561-1.465c0.338-0.158,0.559,0.135,0.559,0.941
							c0,0.813-0.221,1.32-0.559,1.479C60.815,9.554,60.596,9.249,60.596,8.438z M61.456,8.036c0-0.67-0.124-0.857-0.3-0.773
							c-0.176,0.082-0.301,0.383-0.301,1.053c0,0.678,0.125,0.873,0.301,0.791S61.456,8.712,61.456,8.036z"/>
						<path fill="#FFFFFF" d="M61.951,9.411c0.16-0.164,0.254-0.367,0.257-0.555c-0.01,0.006-0.018,0.01-0.026,0.014
							C62.086,8.915,62,8.872,62,8.72c0-0.143,0.086-0.273,0.188-0.322c0.133-0.061,0.209,0.053,0.209,0.297
							c0,0.332-0.142,0.656-0.384,0.895L61.951,9.411z"/>
						<path fill="#FFFFFF" d="M62.638,7.483c0-0.811,0.219-1.305,0.56-1.465c0.339-0.158,0.559,0.135,0.559,0.941
							c0,0.813-0.22,1.322-0.559,1.48C62.856,8.601,62.638,8.296,62.638,7.483z M63.498,7.081c0-0.67-0.124-0.855-0.301-0.773
							c-0.176,0.082-0.301,0.385-0.301,1.055c0,0.676,0.125,0.873,0.301,0.789C63.374,8.069,63.498,7.757,63.498,7.081z"/>
						<path fill="#FFFFFF" d="M63.979,6.856c0-0.809,0.218-1.305,0.558-1.463s0.561,0.135,0.561,0.941
							c0,0.813-0.221,1.322-0.561,1.48S63.979,7.669,63.979,6.856z M64.84,6.456c0-0.67-0.124-0.855-0.303-0.773
							c-0.175,0.082-0.3,0.385-0.3,1.053c0,0.678,0.125,0.873,0.3,0.791C64.716,7.444,64.84,7.132,64.84,6.456z"/>
						<path fill="#FFFFFF" d="M65.319,6.231c0-0.811,0.219-1.305,0.56-1.465c0.34-0.158,0.561,0.135,0.561,0.941
							c0,0.813-0.221,1.322-0.561,1.48C65.538,7.349,65.319,7.044,65.319,6.231z M66.18,5.829c0-0.67-0.122-0.855-0.301-0.773
							c-0.176,0.082-0.301,0.385-0.301,1.055c0,0.676,0.125,0.871,0.301,0.789C66.058,6.817,66.18,6.505,66.18,5.829z"/>
					</g>
				</g>
			</g>
			<path fill="#FFFFFF" d="M53.773,10.624c-1.864,0.738-3.382,2.998-3.382,5.037c0,2.041,1.518,3.1,3.382,2.361
				c1.865-0.738,3.383-2.998,3.383-5.039C57.156,10.944,55.639,9.886,53.773,10.624z M53.773,10.96
				c1.697-0.672,3.077,0.291,3.077,2.146c0,0.707-0.203,1.445-0.547,2.121c-0.02-0.027-0.036-0.055-0.058-0.076
				c-0.203-0.219-1.486-0.156-1.545-0.182c-0.057-0.029-0.236-0.225-0.236-0.225l-0.013,0.006V14.46
				c0.077-0.137,0.138-0.268,0.175-0.369c0.027-0.068,0.048-0.201,0.067-0.365c0.212-0.189,0.237-0.57,0.245-0.781
				c0.006-0.109-0.046-0.092-0.1-0.047c0.003-0.023,0.004-0.045,0.006-0.068c0.057-0.238,0.107-0.475,0.152-0.709
				c0.034-0.18,0.06-0.377-0.025-0.488c0.031-0.008,0.061-0.014,0.09-0.021c-0.119-0.254-0.393-0.348-0.685-0.309
				c-0.29,0.037-0.595,0.195-0.889,0.381c-0.146,0.094-0.302,0.209-0.404,0.369c-0.13,0.057-0.261,0.131-0.385,0.225
				c0.045,0.002,0.093,0.006,0.138,0.01c-0.204,0.318-0.307,0.699-0.27,1.01c0.015,0.137,0.061,0.258,0.124,0.357
				c0.01,0.025,0.019,0.051,0.028,0.076c-0.044,0.002-0.083,0.031-0.078,0.125c0.01,0.203,0.034,0.564,0.247,0.586
				c0.02,0.15,0.04,0.266,0.065,0.313c0.038,0.07,0.096,0.152,0.17,0.227v0.297l-0.012,0.006c0,0-0.181,0.336-0.237,0.408
				c-0.056,0.072-1.339,1.025-1.545,1.406c-0.024,0.047-0.048,0.1-0.07,0.156c-0.354-0.408-0.563-0.992-0.563-1.713
				C50.698,13.687,52.077,11.63,53.773,10.96z"/>
		</g>
	</g>
</g>
</svg>
